<svg width="36" height="36" viewBox="0 0 36 36" fill="none" xmlns="http://www.w3.org/2000/svg">
<path d="M30.9913 7.89038H26.9758V7.25647H25.9189V20.2896H12.3223V1.05688H21.4102V6.12927H26.9758V4.78317L22.1927 0H11.2654V2.25439H9.01099V10.1448H5.62939V24.7983H4.43188V9.51086C4.43188 9.18045 4.73566 8.94727 5.0658 8.94727H7.88379V7.89038H5.0658C4.15283 7.89038 3.375 8.5979 3.375 9.51086V27.546C3.375 28.459 4.15283 29.2368 5.0658 29.2368H15.2106V32.6887H14.647C13.734 32.6887 12.9562 33.3962 12.9562 34.3092V36H23.0306V34.3092C23.0306 33.3962 22.3231 32.6887 21.4102 32.6887H20.7762V29.2368H30.9913C31.9043 29.2368 32.6118 28.459 32.6118 27.546V9.51086C32.6118 8.5979 31.9043 7.89038 30.9913 7.89038ZM22.467 1.7688L25.7706 5.07239H22.467V1.7688ZM10.0679 3.31128H11.2654V21.3464H23.6646V22.5439H10.0679V3.31128ZM6.68628 11.2017H9.01099V23.6008H24.7214V21.3464H26.9758V11.2017H29.3005V24.7983H6.68628V11.2017ZM21.4102 33.7456C21.7403 33.7456 21.9738 33.9791 21.9738 34.3092V34.9431H14.0131V34.3092C14.0131 33.9791 14.3168 33.7456 14.647 33.7456H21.4102ZM16.2675 32.6887V29.2368H19.7194V32.6887H16.2675ZM31.5549 27.546C31.5549 27.8762 31.3215 28.1799 30.9913 28.1799H5.0658C4.73566 28.1799 4.43188 27.8762 4.43188 27.546V25.8552H31.5549V27.546ZM31.5549 24.7983H30.3574V10.1448H26.9758V8.94727H30.9913C31.3215 8.94727 31.5549 9.18045 31.5549 9.51086V24.7983Z" fill="#380E86"/>
<path d="M14.0834 2.81787H15.2106V3.87476H14.0834V2.81787Z" fill="#380E86"/>
<path d="M16.3378 2.81787H17.465V3.87476H16.3378V2.81787Z" fill="#380E86"/>
<path d="M18.5922 2.81787H19.7194V3.87476H18.5922V2.81787Z" fill="#380E86"/>
<path d="M17.3947 18.5282V14.6533H14.0834V18.5282H15.1403V17.401H16.3378V18.5282H17.3947ZM15.1403 16.3441V15.7102H16.3378V16.3441H15.1403Z" fill="#380E86"/>
<path d="M14.0834 5.07227H20.283V6.12915H14.0834V5.07227Z" fill="#380E86"/>
<path d="M14.0834 7.32666H24.2281V8.38354H14.0834V7.32666Z" fill="#380E86"/>
<path d="M14.0834 9.58105H24.2281V10.6379H14.0834V9.58105Z" fill="#380E86"/>
<path d="M21.4102 17.4717H24.2281V18.5286H21.4102V17.4717Z" fill="#380E86"/>
<path d="M22.5374 15.2173H24.2281V16.2742H22.5374V15.2173Z" fill="#380E86"/>
<path d="M17.465 26.4893H18.5922V27.5461H17.465V26.4893Z" fill="#380E86"/>
</svg>
