<svg width="16" height="6" viewBox="0 0 16 6" fill="none" xmlns="http://www.w3.org/2000/svg">
<path d="M14.6 5.99999H1.40005C1.06885 5.99999 0.800049 5.73119 0.800049 5.39999C0.800049 5.06879 1.06885 4.79999 1.40005 4.79999C3.39085 4.79999 4.40005 3.387 4.40005 0.599999C4.40005 0.2688 4.66885 0 5.00005 0H11C11.3312 0 11.6 0.2688 11.6 0.599999C11.6 3.387 12.6092 4.79999 14.6 4.79999C14.9312 4.79999 15.2 5.06879 15.2 5.39999C15.2 5.73119 14.9312 5.99999 14.6 5.99999ZM4.32265 4.79999H11.6781C10.9388 3.9816 10.5038 2.763 10.4168 1.2H5.58385C5.49625 2.763 5.06185 3.9816 4.32265 4.79999Z" fill="white"/>
</svg>
