<svg width="36" height="30" viewBox="0 0 36 30" fill="none" xmlns="http://www.w3.org/2000/svg">
<path d="M36 27.4773L29.2226 3.06728L23.3806 4.68927L24.026 7.01377H17.5281V3.77622H11.4651V6.17216H8.1817V0.890625H0V29.1096H7.01937H8.1817H11.4651H12.6274H16.3657H17.5281H25.1338V11.0035L30.158 29.0992L36 27.4773ZM12.6274 4.93855H16.3657V7.81701H12.6274V4.93855ZM12.6274 12.6381H16.3657V25.8557H12.6274V12.6381ZM12.6274 11.4758V10.8088H16.3657V11.4758H12.6274ZM12.6274 9.64644V8.97934H16.3657V9.64644H12.6274ZM7.01937 25.6856H1.16233V4.2995H7.01937V25.6856ZM7.01937 2.05295V3.13717H1.16233V2.05295H7.01937ZM1.16233 27.9474V26.8479H7.01937V27.9474H1.16233ZM11.4651 27.9474H8.1817V7.33449H11.4651V27.9474ZM12.6274 27.9474V27.018H16.3657V27.9474H12.6274ZM23.9715 27.9474H17.5281V8.17602H23.9715V27.9474ZM30.967 27.6684L26.8801 12.9486L30.4822 11.9485L34.5691 26.6683L30.967 27.6684ZM26.5692 11.8287L26.2489 10.6753L29.851 9.67519L30.1712 10.8285L26.5692 11.8287ZM28.4136 4.4981L29.54 8.55524L25.938 9.55539L24.8115 5.49825L28.4136 4.4981Z" fill="#380E86"/>
<path d="M22.6217 9.43359H18.8779V10.5959H22.6217V9.43359Z" fill="#380E86"/>
<path d="M22.6217 11.4756H18.8779V12.6379H22.6217V11.4756Z" fill="#380E86"/>
<path d="M22.6217 13.5181H18.8779V14.6804H22.6217V13.5181Z" fill="#380E86"/>
<path d="M22.6217 25.3452H18.8779V26.5075H22.6217V25.3452Z" fill="#380E86"/>
<path d="M10.4045 18.0981H9.24219V20.0551H10.4045V18.0981Z" fill="#380E86"/>
<path d="M10.4045 21.1616H9.24219V25.5861H10.4045V21.1616Z" fill="#380E86"/>
<path d="M10.4045 11.7168H9.24219V16.9923H10.4045V11.7168Z" fill="#380E86"/>
<path d="M10.4045 8.65332H9.24219V10.6955H10.4045V8.65332Z" fill="#380E86"/>
</svg>
