<svg width="36" height="36" viewBox="0 0 36 36" fill="none" xmlns="http://www.w3.org/2000/svg">
<path d="M35.2744 12.5381L33.0244 10.2881C32.9721 10.2354 32.9099 10.1936 32.8413 10.165C32.7728 10.1364 32.6993 10.1217 32.625 10.1217C32.5507 10.1217 32.4772 10.1364 32.4087 10.165C32.3401 10.1936 32.2779 10.2354 32.2256 10.2881L27.5625 14.9569V1.125C27.5625 0.975816 27.5032 0.832742 27.3977 0.727252C27.2923 0.621763 27.1492 0.5625 27 0.5625H1.125C0.975816 0.5625 0.832742 0.621763 0.727252 0.727252C0.621763 0.832742 0.5625 0.975816 0.5625 1.125V34.875C0.5625 35.0242 0.621763 35.1673 0.727252 35.2727C0.832742 35.3782 0.975816 35.4375 1.125 35.4375H27C27.1492 35.4375 27.2923 35.3782 27.3977 35.2727C27.5032 35.1673 27.5625 35.0242 27.5625 34.875V21.0431L35.2744 13.3369C35.3271 13.2846 35.3689 13.2224 35.3975 13.1538C35.4261 13.0853 35.4408 13.0118 35.4408 12.9375C35.4408 12.8632 35.4261 12.7897 35.3975 12.7212C35.3689 12.6526 35.3271 12.5904 35.2744 12.5381ZM19.3162 25.1719L20.3906 26.2463L18.5063 27.0562L19.3162 25.1719ZM19.9181 24.1875L30.375 13.7306L31.8319 15.1875L21.375 25.6444L19.9181 24.1875ZM26.4375 34.3125H1.6875V1.6875H26.4375V16.0819L24.5194 18H8.4375V19.125H23.3944L21.1444 21.375H8.4375V22.5H20.0194L18.8944 23.625H8.4375V24.75H18.27L16.92 27.9056C16.8838 27.9911 16.8693 28.0842 16.8778 28.1767C16.8864 28.2691 16.9177 28.358 16.9689 28.4355C17.0201 28.5129 17.0897 28.5764 17.1715 28.6204C17.2533 28.6644 17.3447 28.6874 17.4375 28.6875C17.5129 28.6874 17.5875 28.6721 17.6569 28.6425L21.5944 26.955C21.6608 26.9263 21.7217 26.8864 21.7744 26.8369L26.4375 22.1681V34.3125ZM32.625 14.3944L31.1681 12.9375L32.625 11.4806L34.0819 12.9375L32.625 14.3944Z" fill="#380E86"/>
</svg>
