<svg width="189" height="44" viewBox="0 0 189 44" fill="none" xmlns="http://www.w3.org/2000/svg">
<path d="M0 43.7286V6.65137H8.76881C11.3202 6.65137 13.2771 6.77455 14.5899 7.02091C15.878 7.26727 17.0422 7.66145 18.0083 8.25272C19.5936 9.16425 20.8569 10.4946 21.7982 12.1944C22.7147 13.8943 23.2101 15.7667 23.2101 17.7622C23.2101 21.2851 21.9963 24.1183 19.6183 26.1877C17.2404 28.2818 13.9459 29.3411 9.83394 29.3411H4.90459V43.7532H0V43.7286ZM4.90459 24.8574H9.41284C12.4349 24.8574 14.6642 24.3154 16.0514 23.256C17.4633 22.172 18.1817 20.4229 18.1817 18.0825C18.1817 15.742 17.4633 13.9929 16.0266 12.835C14.6147 11.7017 12.4596 11.1351 9.61101 11.1351H4.90459V24.8574Z" fill="#380E86"/>
<path d="M26.4053 17.9844C26.4053 16.4323 26.6777 14.9788 27.1979 13.6238C27.7181 12.2688 28.5108 11.0616 29.5264 9.97764C30.6411 8.79511 31.8796 7.88357 33.2915 7.24303C34.7034 6.6025 36.1401 6.28223 37.6264 6.28223C39.2365 6.28223 40.7227 6.57786 42.0851 7.14449C43.4475 7.71112 44.7108 8.57338 45.8007 9.682C46.8906 10.7906 47.708 12.0224 48.3025 13.4267C48.897 14.8063 49.1695 16.2352 49.1695 17.7134C49.1695 19.2162 48.897 20.6943 48.3521 22.0986C47.8071 23.5275 47.0392 24.7593 46.0732 25.8433C44.9585 27.0751 43.6952 27.9866 42.2833 28.6271C40.8961 29.2677 39.3851 29.5879 37.8245 29.5879C36.2144 29.5879 34.7034 29.2923 33.3411 28.7257C31.9787 28.159 30.7401 27.2968 29.675 26.1635C28.6346 25.0795 27.842 23.8231 27.2475 22.3942C26.7025 20.9407 26.4053 19.4872 26.4053 17.9844ZM30.5172 17.9597C30.5172 20.1523 31.2108 21.9754 32.6227 23.4536C34.0099 24.9071 35.7686 25.6462 37.8493 25.6462C39.9053 25.6462 41.6144 24.9071 43.0016 23.4289C44.3888 21.9508 45.0823 20.1277 45.0823 17.9104C45.0823 15.6932 44.3888 13.8455 43.0016 12.392C41.6144 10.9384 39.8805 10.224 37.7998 10.224C35.7438 10.224 34.0099 10.9631 32.5979 12.4412C31.2108 13.8948 30.5172 15.7425 30.5172 17.9597Z" fill="white"/>
<path d="M56.6258 28.9474H52.6377V6.97208H56.3781V9.50959C57.0221 8.54879 57.79 7.8097 58.6322 7.34162C59.4744 6.87353 60.4652 6.62717 61.6047 6.60254V10.7414C59.8212 10.8892 58.5579 11.4065 57.79 12.3181C57.0221 13.2296 56.6258 14.7078 56.6258 16.7279V28.9474Z" fill="#380E86"/>
<path d="M82.3376 28.9478V26.2625C81.322 27.3218 80.1825 28.1102 78.944 28.6522C77.6807 29.1942 76.3679 29.4652 74.9312 29.4652C71.6119 29.4652 68.8624 28.3565 66.6578 26.1639C64.4532 23.9713 63.3633 21.2121 63.3633 17.8862C63.3633 16.3342 63.6358 14.8806 64.1807 13.501C64.7257 12.1214 65.5183 10.8896 66.5339 9.85486C67.6486 8.69696 68.8624 7.8347 70.1752 7.29271C71.488 6.75071 72.9991 6.45508 74.6835 6.45508C76.1945 6.45508 77.5816 6.72608 78.8697 7.24343C80.133 7.78543 81.2972 8.57378 82.3376 9.65777V6.97244H86.3504V28.9478H82.3376ZM67.5 17.8369C67.5 20.0542 68.2431 21.9265 69.7293 23.4293C71.2156 24.9321 73.0238 25.6959 75.1541 25.6959C77.111 25.6959 78.8202 24.9321 80.3312 23.4293C81.8174 21.9265 82.5605 20.1527 82.5605 18.1326C82.5605 15.9646 81.8174 14.1169 80.3312 12.5895C78.8449 11.062 77.0862 10.2737 75.055 10.2737C72.9743 10.2737 71.1908 11.0128 69.7046 12.4663C68.2183 13.9198 67.5 15.7182 67.5 17.8369Z" fill="#380E86"/>
<path d="M94.7968 0H93.0381V28.9474H94.7968V0Z" fill="#380E86"/>
<path d="M110.774 29.5878C107.628 29.5878 104.928 28.4546 102.749 26.2373C100.569 23.9955 99.4541 21.2855 99.4541 18.1321C99.4541 14.8555 100.544 12.0962 102.674 9.95291C104.805 7.80957 107.579 6.72559 110.898 6.72559C114.143 6.72559 116.843 7.85884 118.874 10.0761C120.856 12.2194 121.896 15.0526 121.971 18.5016H101.262L101.312 19.1422C101.51 21.7536 102.476 23.9216 104.21 25.5229C105.944 27.1489 108.124 27.9865 110.7 27.9865C112.533 27.9865 114.193 27.5184 115.654 26.5576C117.016 25.6707 118.106 24.4635 118.874 22.9607H120.93C119.964 24.9809 118.651 26.5576 117.066 27.6909C115.258 28.9473 113.152 29.5878 110.774 29.5878ZM110.477 8.32693C108.124 8.32693 106.093 9.06601 104.433 10.5442C102.798 11.9977 101.783 13.9932 101.411 16.4815L101.312 17.1466H120.063L119.915 16.4322C119.345 13.7961 118.23 11.7513 116.67 10.3964C115.084 9.01674 112.979 8.32693 110.477 8.32693Z" fill="#380E86"/>
<path d="M138.913 28.9474L129.55 17.5162L137.476 7.36618H139.334L131.482 17.3438L141.068 28.9474H138.913ZM126.577 28.9474V0H128.336V28.9474H126.577Z" fill="#380E86"/>
<path d="M160.414 28.9474V17.9351C160.414 14.4614 159.894 12.0963 158.804 10.6921C157.689 9.26316 155.856 8.52408 153.33 8.52408C151.918 8.52408 150.63 8.81971 149.54 9.38634C148.45 9.9776 147.558 10.8152 146.914 11.8992C146.518 12.589 146.245 13.3527 146.072 14.215C145.923 15.0526 145.849 16.4323 145.849 18.477V28.972H144.14V0H145.849V11.1109L146.889 9.82979C147.682 8.86898 148.623 8.1299 149.713 7.66181C150.828 7.16909 152.066 6.92273 153.453 6.92273C156.475 6.92273 158.68 7.76036 160.018 9.43561C161.405 11.1601 162.098 14.0179 162.098 17.9843V28.972H160.414V28.9474Z" fill="#380E86"/>
<path d="M177.952 29.5628C174.781 29.5628 172.106 28.4788 170.001 26.3109C167.895 24.1429 166.83 21.4576 166.83 18.2549C166.83 15.0276 167.92 12.2929 170.075 10.125C172.23 7.95704 174.98 6.87305 178.225 6.87305C179.884 6.87305 181.42 7.21796 182.807 7.88313C184.17 8.54831 185.334 9.50911 186.25 10.7655L187.315 12.2437V7.36577H189V28.9469H187.315V24.069L186.25 25.6211C185.408 26.8529 184.219 27.8137 182.758 28.5035C181.271 29.1933 179.661 29.5628 177.952 29.5628ZM178.126 8.40049C175.525 8.40049 173.27 9.3613 171.413 11.2829C169.58 13.1798 168.663 15.5695 168.663 18.3781C168.663 21.0634 169.58 23.3545 171.413 25.2269C173.246 27.0746 175.475 28.0108 178.026 28.0108C180.528 28.0108 182.708 27.0253 184.541 25.0544C186.374 23.1082 187.291 20.7431 187.291 18.0085C187.291 15.4464 186.349 13.1798 184.516 11.2829C182.708 9.38593 180.528 8.40049 178.126 8.40049Z" fill="#380E86"/>
<path d="M130.64 43.9996C129.278 43.9996 128.163 43.5315 127.247 42.5461C126.33 41.5853 125.859 40.4027 125.859 39.0477C125.859 37.6681 126.33 36.4856 127.271 35.5248C128.213 34.5393 129.302 34.0713 130.566 34.0713C131.928 34.0713 133.043 34.5393 134.009 35.5001C134.975 36.461 135.421 37.5942 135.421 38.9246C135.421 40.3288 134.95 41.536 134.034 42.5214C133.068 43.5315 131.953 43.9996 130.64 43.9996ZM130.516 34.7364C129.426 34.7364 128.51 35.1552 127.742 35.9929C126.974 36.8059 126.602 37.8406 126.602 39.0477C126.602 40.2549 126.999 41.2896 127.767 42.1026C128.535 42.9402 129.525 43.3591 130.665 43.3591C131.804 43.3591 132.77 42.9402 133.513 42.1026C134.281 41.2896 134.653 40.2549 134.653 39.0231C134.653 37.7913 134.257 36.7566 133.489 35.9436C132.696 35.1552 131.705 34.7364 130.516 34.7364Z" fill="#380E86"/>
<path d="M147.286 43.7287V38.4565C147.286 37.2001 147.038 36.3132 146.543 35.7219C146.048 35.1307 145.255 34.835 144.19 34.835C143.571 34.835 143.026 34.9582 142.555 35.2046C142.084 35.4509 141.688 35.8205 141.415 36.3132C141.242 36.6088 141.118 36.9537 141.044 37.3233C140.97 37.6928 140.945 38.3087 140.945 39.171V43.704H140.301V34.367H140.945V35.9683L141.44 35.377C141.787 34.9582 142.208 34.6626 142.679 34.4655C143.149 34.2684 143.694 34.1699 144.314 34.1699C144.982 34.1699 145.602 34.293 146.122 34.5394C146.642 34.7858 147.038 35.1307 147.336 35.5988C147.534 35.919 147.682 36.3132 147.782 36.7567C147.881 37.2247 147.93 37.9145 147.93 38.8014V43.704H147.286V43.7287Z" fill="#380E86"/>
<path d="M154.891 31.1895H154.197V43.7293H154.891V31.1895Z" fill="#380E86"/>
<path d="M161.108 43.7293V34.3922H161.802V43.7293H161.108ZM161.108 32.6677V31.1895H161.802V32.6677H161.108Z" fill="#380E86"/>
<path d="M174.262 43.7287V38.4565C174.262 37.2001 174.014 36.3132 173.519 35.7219C173.023 35.1307 172.23 34.835 171.165 34.835C170.546 34.835 170.001 34.9582 169.531 35.2046C169.06 35.4509 168.664 35.8205 168.391 36.3132C168.218 36.6088 168.094 36.9537 168.019 37.3233C167.945 37.6928 167.92 38.3087 167.92 39.171V43.704H167.276V34.367H167.92V35.9683L168.416 35.377C168.763 34.9582 169.184 34.6626 169.654 34.4655C170.125 34.2684 170.67 34.1699 171.289 34.1699C171.958 34.1699 172.577 34.293 173.097 34.5394C173.618 34.7858 174.014 35.1307 174.311 35.5988C174.509 35.919 174.658 36.3132 174.757 36.7567C174.856 37.2247 174.906 37.9145 174.906 38.8014V43.704H174.262V43.7287Z" fill="#380E86"/>
<path d="M184.219 44.0001C182.857 44.0001 181.742 43.532 180.801 42.5466C179.859 41.5858 179.389 40.4033 179.389 39.0483C179.389 37.6194 179.859 36.4369 180.751 35.5007C181.668 34.5892 182.832 34.1211 184.244 34.1211C185.656 34.1211 186.77 34.5892 187.637 35.5746C188.48 36.5108 188.925 37.7179 188.95 39.1961H180.057L180.082 39.4917C180.157 40.625 180.578 41.5858 181.321 42.3002C182.064 43.0147 183.005 43.3842 184.12 43.3842C184.913 43.3842 185.631 43.1625 186.275 42.7683C186.869 42.3988 187.315 41.8568 187.662 41.2163H188.48C188.058 42.0785 187.513 42.7437 186.845 43.2364C186.126 43.7291 185.235 44.0001 184.219 44.0001ZM184.095 34.7616C183.08 34.7616 182.188 35.0819 181.494 35.7224C180.776 36.363 180.355 37.2252 180.181 38.3092L180.132 38.6295H188.257L188.182 38.2846C187.935 37.1267 187.464 36.2398 186.77 35.6485C186.077 35.0572 185.185 34.7616 184.095 34.7616Z" fill="#380E86"/>
<path d="M37.6762 26.3851C42.861 26.3851 47.0642 22.2047 47.0642 17.048C47.0642 11.8913 42.861 7.71094 37.6762 7.71094C32.4913 7.71094 28.2881 11.8913 28.2881 17.048C28.2881 22.2047 32.4913 26.3851 37.6762 26.3851Z" fill="black"/>
<path d="M45.8506 9.38654C44.7112 8.25328 43.4479 7.39102 42.0607 6.79976C40.6736 6.20849 39.1626 5.9375 37.5029 5.9375C35.9919 5.9375 34.5057 6.25776 33.0937 6.92294C31.6818 7.56348 30.3937 8.49965 29.2791 9.70681C29.0561 9.92854 28.8827 10.1502 28.6846 10.3719L32.0038 12.6385C32.1277 12.4906 32.2763 12.3428 32.4002 12.1704C33.8121 10.6676 35.5956 9.92854 37.6763 9.92854C39.7818 9.92854 41.5405 10.6676 42.9525 12.1457C43.1259 12.3428 43.2993 12.5399 43.4479 12.737L46.7671 10.4705C46.4947 10.1009 46.1726 9.73145 45.8506 9.38654Z" fill="#3E2C80"/>
<path d="M37.3289 29.6126C35.8426 29.5633 34.4555 29.2923 33.1674 28.7504C31.7803 28.1591 30.5417 27.2968 29.427 26.1389C28.3867 25.0303 27.5692 23.7739 26.9748 22.3203C26.3803 20.8668 26.083 19.364 26.083 17.8612C26.083 17.5902 26.083 17.3192 26.1078 17.0482V12.6384C26.1078 11.4558 26.5041 10.3226 27.1977 9.3125L28.7087 10.3719L32.0032 12.6384L37.8243 16.6294L43.4968 12.7369L46.7913 10.4704L48.2775 9.43568C48.9215 10.4211 49.2683 11.5051 49.2683 12.6384V16.999C49.2683 17.1714 49.2931 17.3685 49.2931 17.5656C49.2931 19.093 49.0206 20.5958 48.4509 22.0247C47.9059 23.4782 47.138 24.7347 46.1472 25.8187C45.0078 27.0505 43.7197 28.0113 42.3078 28.6518C40.9702 29.2431 39.5582 29.5633 38.072 29.6126H37.3289Z" fill="#3E2C80"/>
<path d="M37.3291 29.7603C35.8181 29.711 34.4061 29.4154 33.1181 28.8734C31.7061 28.2821 30.4428 27.3952 29.3281 26.2373C28.263 25.1287 27.4208 23.823 26.8263 22.3695C26.2318 20.8913 25.9346 19.3639 25.9346 17.8611C25.9346 17.5901 25.9346 17.2944 25.9593 17.0234V12.6628C25.9593 11.4803 26.3309 10.3224 27.074 9.23841L27.1483 9.11523L28.9566 10.3471L37.8245 16.4322L46.5438 10.4456L46.6924 10.3471L48.3272 9.23841L48.4016 9.36159C49.0704 10.3963 49.4171 11.505 49.4171 12.6382V16.9988C49.4171 17.1959 49.4419 17.3683 49.4419 17.5654C49.4419 19.0929 49.1694 20.6203 48.5997 22.0985C48.0548 23.552 47.2621 24.8577 46.2465 25.9417C45.0823 27.1981 43.7694 28.1589 42.3575 28.7995C40.9951 29.4154 39.5584 29.7356 38.0474 29.7603H37.3291ZM37.3291 29.4646H38.0226C39.4841 29.44 40.8713 29.1197 42.2089 28.5285C43.596 27.8879 44.8841 26.9518 45.9988 25.72C46.9648 24.6606 47.7327 23.3795 48.2777 21.9753C48.8226 20.5464 49.0951 19.0682 49.0951 17.5654C49.0951 17.3683 49.0951 17.1959 49.0704 17.0234V12.6628C49.0704 11.6281 48.7731 10.6427 48.1786 9.68186L37.7749 16.8263L28.4364 10.421L27.2474 9.53404C26.6034 10.5195 26.2814 11.5789 26.2814 12.6628V17.0234C26.2566 17.2944 26.2566 17.5654 26.2566 17.8364C26.2566 19.3146 26.5538 20.7927 27.1236 22.2463C27.6933 23.6752 28.5107 24.9316 29.5511 26.0156C30.641 27.1489 31.8795 28.0111 33.2419 28.6024C34.4804 29.1444 35.8676 29.4154 37.3291 29.4646Z" fill="white"/>
<path d="M50.1604 0H25.3154V1.2318H50.1604V0Z" fill="black"/>
<path d="M48.6987 4.33559H48.6739C48.6244 4.33559 48.5996 4.28631 48.5996 4.26168V0.763362C48.5996 0.714089 48.6491 0.689453 48.6739 0.689453H48.6987C48.7482 0.689453 48.773 0.738725 48.773 0.763362V4.26168C48.7978 4.31095 48.7482 4.33559 48.6987 4.33559Z" fill="white"/>
<path d="M48.9462 4.06484V4.08947C48.9462 4.13875 48.8967 4.16338 48.8719 4.16338H48.5499C48.5004 4.16338 48.4756 4.11411 48.4756 4.08947V4.06484C48.4756 4.01557 48.5251 3.99093 48.5499 3.99093H48.8719C48.8967 3.96629 48.9462 4.01557 48.9462 4.06484Z" fill="white"/>
<path d="M30.8389 6.92285L31.582 7.24312C31.3343 7.41557 31.0866 7.58802 30.8389 7.76048V6.92285Z" fill="black"/>
<path d="M37.6014 18.4279C39.8039 18.4279 41.5894 16.6521 41.5894 14.4615C41.5894 12.2709 39.8039 10.4951 37.6014 10.4951C35.3988 10.4951 33.6133 12.2709 33.6133 14.4615C33.6133 16.6521 35.3988 18.4279 37.6014 18.4279Z" fill="#3E2C80"/>
<path d="M44.5374 6.89844V7.78534C44.2897 7.58825 44.0172 7.4158 43.7695 7.24335L44.5374 6.89844Z" fill="black"/>
<path d="M39.682 14.9541L37.7003 18.6987L35.7187 14.9541C35.5948 14.7323 35.57 14.486 35.6443 14.2643C36.115 12.589 39.3104 12.589 39.781 14.2643C39.8306 14.486 39.781 14.757 39.682 14.9541Z" fill="#FFD00E"/>
<path d="M37.6758 11.3815C37.6758 14.5103 35.0996 17.0724 31.9785 17.0478C28.8575 17.0478 26.2812 14.461 26.2812 11.3815C26.2812 8.22813 28.8822 5.66598 32.028 5.69061C35.1491 5.71525 37.6758 8.22813 37.6758 11.3815Z" fill="white"/>
<path d="M31.9788 17.2453C28.7091 17.2453 26.0586 14.6092 26.0586 11.3819C26.0586 9.80519 26.6779 8.30239 27.8173 7.19376C28.932 6.08514 30.3935 5.46924 31.9788 5.49388C35.2733 5.51851 37.8246 8.1053 37.8246 11.3819C37.8494 14.6339 35.2237 17.2453 31.9788 17.2453ZM31.954 5.88805C30.5173 5.88805 29.1302 6.45468 28.0898 7.4894C27.0246 8.52411 26.4549 9.92837 26.4549 11.4065C26.4549 14.4121 28.932 16.8757 31.9788 16.9004C35.0008 16.9004 37.4531 14.4368 37.4531 11.4065C37.4531 8.35166 35.0503 5.91269 31.9788 5.91269C32.0035 5.88805 31.9788 5.88805 31.954 5.88805Z" fill="black"/>
<path d="M32.9698 10.569C32.3258 11.111 32.2267 11.7023 32.6478 12.1703C33.0441 12.6138 33.7129 12.5399 34.2579 11.9979C34.7037 12.8355 34.3322 14.0673 33.4652 14.7079C32.4496 15.4469 31.0377 15.3238 30.1459 14.4122C29.3533 13.5992 29.279 12.2689 29.9726 11.2834C30.6166 10.3965 32.0037 9.97777 32.9698 10.569ZM32.3505 12.2935C32.1276 12.1211 32.0037 11.9486 31.8799 11.9733C31.756 11.9733 31.657 12.1703 31.5331 12.2689C31.6322 12.3674 31.7313 12.5399 31.8304 12.5645C31.979 12.5399 32.1028 12.4167 32.3505 12.2935Z" fill="black"/>
<path d="M49.0952 11.4061C49.0705 14.5103 46.4695 17.0724 43.3732 17.0478C40.2521 17.0478 37.6512 14.4364 37.676 11.3322C37.7007 8.20349 40.3016 5.66598 43.4475 5.69061C46.5191 5.71525 49.12 8.32667 49.0952 11.4061Z" fill="white"/>
<path d="M43.3737 17.2455C41.7883 17.2455 40.3021 16.6296 39.1874 15.4963C38.0727 14.3631 37.4535 12.8849 37.4783 11.3328C37.503 8.10556 40.1535 5.49414 43.3984 5.49414C43.4232 5.49414 43.4232 5.49414 43.448 5.49414C44.9838 5.49414 46.47 6.13467 47.5847 7.26793C48.6994 8.40119 49.3186 9.87935 49.2939 11.4067C49.2443 14.6341 46.6186 17.2455 43.3737 17.2455ZM43.3984 5.88831C40.3517 5.88831 37.8746 8.32728 37.8498 11.3328C37.8498 12.7864 38.4195 14.166 39.4599 15.2253C40.5003 16.2847 41.8874 16.8513 43.3489 16.876C43.3489 16.876 43.3489 16.876 43.3737 16.876C46.3957 16.876 48.8728 14.437 48.8975 11.4067C48.8975 9.9779 48.3278 8.59828 47.2874 7.53893C46.2471 6.47958 44.8599 5.88831 43.4232 5.88831H43.3984Z" fill="black"/>
<path d="M45.3801 11.2834C46.0737 12.2689 45.9994 13.5992 45.2067 14.4122C44.315 15.3238 42.9278 15.4469 41.8875 14.7079C41.0205 14.0673 40.6489 12.8602 41.0948 11.9979C41.6398 12.5399 42.3086 12.6138 42.7049 12.1703C43.126 11.7023 43.0269 11.0864 42.3829 10.569C43.3489 9.97777 44.7361 10.3965 45.3801 11.2834ZM43.4976 12.5399C43.5966 12.5399 43.6957 12.3674 43.7948 12.2443C43.6709 12.1457 43.5719 11.9486 43.448 11.9486C43.3242 11.9486 43.2003 12.1211 42.9774 12.2689C43.2251 12.4167 43.3737 12.5399 43.4976 12.5399Z" fill="black"/>
<path d="M48.0058 5.39538L44.5379 6.89818L43.77 7.21845L37.6516 9.87914L31.5828 7.24308L30.8397 6.92281L27.3223 5.39538H30.8397V1.72461H44.5379V5.39538H48.0058Z" fill="black"/>
<path d="M28.7588 14.8555V20.3247C28.7588 24.0694 32.4496 27.1735 37.0817 27.4199C37.4037 26.5083 37.6019 25.5475 37.6019 24.5621C37.6019 20.0291 33.8863 16.1858 28.7588 14.8555Z" fill="#7B63A8"/>
<path d="M37.5773 26.1147V29.2681H37.0076C31.9296 28.9725 27.8672 25.5973 27.8672 21.4585V15.4473C30.691 16.1864 33.1186 17.6152 34.8525 19.4876C36.5865 21.3353 37.5773 23.6264 37.5773 26.1147Z" fill="#C0B1D7"/>
<path d="M37.3537 26.4341V29.2919H36.8335C35.0995 29.1933 33.5142 28.7006 32.2014 27.8876C30.0463 26.5819 28.6592 24.5125 28.6592 22.1967V16.7275C32.7463 17.8115 35.8922 20.5215 36.9821 23.8966C37.2298 24.7096 37.3537 25.5472 37.3537 26.4341Z" fill="black"/>
<path d="M37.3788 26.385V29.1442H36.8834C35.199 29.0457 33.6384 28.5529 32.3751 27.7892C30.2696 26.5328 28.9072 24.5619 28.9072 22.32V17.0479C32.8953 18.0826 35.9669 20.694 37.0072 23.946C37.2549 24.7343 37.3788 25.5473 37.3788 26.385Z" fill="white"/>
<path d="M46.5931 14.8555V20.3247C46.5931 24.0694 42.9023 27.1735 38.2702 27.4199C37.9482 26.5083 37.75 25.5475 37.75 24.5621C37.7748 20.0291 41.4904 16.1858 46.5931 14.8555Z" fill="#7B63A8"/>
<path d="M37.7754 26.1147V29.2681H38.3451C43.4231 28.9725 47.4855 25.5973 47.4855 21.4585V15.4473C44.6616 16.1864 42.2341 17.6152 40.5002 19.4876C38.791 21.3353 37.7754 23.6264 37.7754 26.1147Z" fill="#C0B1D7"/>
<path d="M37.998 26.4341V29.2919H38.5182C40.2522 29.1933 41.8375 28.7006 43.1503 27.8876C45.3054 26.5819 46.6925 24.5125 46.6925 22.1967V16.7275C42.6054 17.8115 39.4595 20.5215 38.3696 23.8966C38.1467 24.7096 37.998 25.5472 37.998 26.4341Z" fill="black"/>
<path d="M37.998 26.385V29.1442H38.4935C40.1779 29.0457 41.7384 28.5529 43.0017 27.7892C45.1072 26.5328 46.4696 24.5619 46.4696 22.32V17.0479C42.4815 18.0826 39.41 20.694 38.3696 23.946C38.1219 24.7343 37.998 25.5473 37.998 26.385Z" fill="white"/>
<path d="M34.1833 30.0313C34.1586 30.0313 34.1338 30.0067 34.1338 29.9821V28.0112C34.1338 27.9865 34.1586 27.9619 34.1833 27.9619H35.0008C35.0255 27.9619 35.0503 27.9865 35.0503 28.0112V29.9821C35.0503 30.0067 35.0255 30.0313 35.0008 30.0313H34.1833Z" fill="#FFD00E"/>
<path d="M35.0005 27.987C35.0253 27.987 35.0253 27.987 35.0005 27.987L35.0253 29.9825C35.0253 30.0072 35.0253 30.0072 35.0005 30.0072H34.1831C34.1583 30.0072 34.1583 30.0072 34.1583 29.9825V28.0116C34.1583 27.987 34.1583 27.987 34.1831 27.987H35.0005ZM35.0005 27.9131H34.1831C34.1335 27.9131 34.084 27.9624 34.084 28.0116V29.9825C34.084 30.0318 34.1335 30.0811 34.1831 30.0811H35.0005C35.05 30.0811 35.0996 30.0318 35.0996 29.9825V28.0116C35.0996 27.9624 35.05 27.9131 35.0005 27.9131Z" fill="black"/>
<path d="M35.4216 30.0313C35.3968 30.0313 35.3721 30.0067 35.3721 29.9821V28.0112C35.3721 27.9865 35.3968 27.9619 35.4216 27.9619H36.239C36.2638 27.9619 36.2886 27.9865 36.2886 28.0112V29.9821C36.2886 30.0067 36.2638 30.0313 36.239 30.0313H35.4216Z" fill="#FFD00E"/>
<path d="M36.2388 27.987C36.2388 27.987 36.2635 27.987 36.2388 27.987L36.2635 29.9825C36.2635 30.0072 36.2635 30.0072 36.2388 30.0072H35.4213C35.3966 30.0072 35.3966 30.0072 35.3966 29.9825V28.0116C35.3966 27.987 35.3966 27.987 35.4213 27.987H36.2388ZM36.2388 27.9131H35.4213C35.3718 27.9131 35.3223 27.9624 35.3223 28.0116V29.9825C35.3223 30.0318 35.3718 30.0811 35.4213 30.0811H36.2388C36.2883 30.0811 36.3379 30.0318 36.3379 29.9825V28.0116C36.3379 27.9624 36.2883 27.9131 36.2388 27.9131Z" fill="black"/>
<path d="M39.1374 30.0313C39.1127 30.0313 39.0879 30.0067 39.0879 29.9821V28.0112C39.0879 27.9865 39.1127 27.9619 39.1374 27.9619H39.9549C39.9796 27.9619 40.0044 27.9865 40.0044 28.0112V29.9821C40.0044 30.0067 39.9796 30.0313 39.9549 30.0313H39.1374Z" fill="#FFD00E"/>
<path d="M39.9298 27.987C39.9546 27.987 39.9546 27.987 39.9298 27.987L39.9546 29.9825C39.9546 30.0072 39.9546 30.0072 39.9298 30.0072H39.1372C39.1124 30.0072 39.1124 30.0072 39.1124 29.9825V28.0116C39.1124 27.987 39.1124 27.987 39.1372 27.987H39.9298ZM39.9298 27.9131H39.1372C39.0876 27.9131 39.0381 27.9624 39.0381 28.0116V29.9825C39.0381 30.0318 39.0876 30.0811 39.1372 30.0811H39.9546C40.0041 30.0811 40.0537 30.0318 40.0537 29.9825V28.0116C40.0289 27.9624 40.0041 27.9131 39.9298 27.9131Z" fill="black"/>
<path d="M40.3757 30.0313C40.3509 30.0313 40.3262 30.0067 40.3262 29.9821V28.0112C40.3262 27.9865 40.3509 27.9619 40.3757 27.9619H41.1931C41.2179 27.9619 41.2427 27.9865 41.2427 28.0112V29.9821C41.2427 30.0067 41.2179 30.0313 41.1931 30.0313H40.3757Z" fill="#FFD00E"/>
<path d="M41.1681 27.987C41.1929 27.987 41.1929 27.987 41.1681 27.987L41.1929 29.9825C41.1929 30.0072 41.1929 30.0072 41.1681 30.0072H40.3754C40.3507 30.0072 40.3507 30.0072 40.3507 29.9825V28.0116C40.3507 27.987 40.3507 27.987 40.3754 27.987H41.1681ZM41.1681 27.9131H40.3754C40.3259 27.9131 40.2764 27.9624 40.2764 28.0116V29.9825C40.2764 30.0318 40.3259 30.0811 40.3754 30.0811H41.1929C41.2424 30.0811 41.292 30.0318 41.292 29.9825V28.0116C41.2672 27.9624 41.2424 27.9131 41.1681 27.9131Z" fill="black"/>
<path d="M48.6987 4.16389C48.7534 4.16389 48.7978 4.11977 48.7978 4.06534C48.7978 4.01092 48.7534 3.9668 48.6987 3.9668C48.644 3.9668 48.5996 4.01092 48.5996 4.06534C48.5996 4.11977 48.644 4.16389 48.6987 4.16389Z" fill="black"/>
</svg>
