<svg width="274" height="334" viewBox="0 0 274 334" fill="none" xmlns="http://www.w3.org/2000/svg">
<path d="M136.282 292.055C193.376 292.055 239.66 245.771 239.66 188.677C239.66 131.583 193.376 85.2988 136.282 85.2988C79.1882 85.2988 32.9043 131.583 32.9043 188.677C32.9043 245.771 79.1882 292.055 136.282 292.055Z" fill="black"/>
<path d="M226.111 103.948C213.666 91.3362 199.813 81.7766 184.417 75.37C169.088 68.8963 152.384 65.7097 134.372 65.7097C117.601 65.7097 101.433 69.2988 85.8023 76.5104C70.2386 83.655 56.2178 93.9525 43.7735 107.302C41.4591 109.751 39.2788 112.2 37.2998 114.749L73.8276 139.906C75.2364 138.128 76.7123 136.484 78.2552 134.841C93.9196 118.237 113.307 110.019 136.418 110.019C159.663 110.019 179.017 118.137 194.547 134.505C196.526 136.619 198.404 138.765 200.115 141.046L236.542 115.923C233.389 111.797 229.867 107.839 226.111 103.948Z" fill="#3E2C80"/>
<path d="M132.493 327.845C115.99 327.408 100.729 324.155 86.7077 318.184C71.4459 311.677 57.6599 301.983 45.5175 289.271C33.9789 277.095 24.956 262.973 18.4152 246.906C11.9415 230.772 8.6543 214.27 8.6543 197.532C8.6543 194.479 8.75492 191.427 8.95618 188.475C8.95618 188.442 8.95618 188.442 8.95618 188.408V140.04C8.95618 126.891 13.2832 114.413 20.8302 103.177L37.5679 114.782C37.5344 114.816 37.5009 114.883 37.4673 114.917L73.7938 139.973L137.759 184.115L200.115 141.113L236.408 116.057C236.374 116.024 236.374 116.024 236.341 115.99L252.81 104.653C259.821 115.487 263.812 127.428 263.812 140.074V188.14C263.812 188.173 263.812 188.173 263.812 188.207C263.913 190.253 263.98 192.299 263.98 194.412C263.98 211.351 260.928 227.854 254.856 243.921C248.785 259.988 240.332 273.942 229.364 286.017C216.752 299.769 202.597 310.235 186.966 317.379C172.275 324.021 156.711 327.61 140.208 327.912H132.493V327.845Z" fill="#3E2C80" stroke="white" stroke-miterlimit="10"/>
<path d="M273.438 0H0V13.7189H273.438V0Z" fill="black"/>
<path d="M258.346 48.1335H256.568C256.434 48.1335 256.367 48.0329 256.367 47.9323V7.84895C256.367 7.71478 256.468 7.64771 256.568 7.64771H258.346C258.48 7.64771 258.547 7.74832 258.547 7.84895V47.9323C258.547 48.0664 258.447 48.1335 258.346 48.1335Z" fill="white"/>
<path d="M260.19 44.2425V46.0203C260.19 46.1544 260.089 46.2215 259.989 46.2215H254.924C254.79 46.2215 254.723 46.1209 254.723 46.0203V44.2425C254.723 44.1083 254.823 44.0413 254.924 44.0413H259.989C260.089 44.0413 260.19 44.1419 260.19 44.2425Z" fill="white"/>
<path d="M60.8125 76.6445L69.064 80.2671C66.2464 82.0449 63.4959 84.0239 60.8125 86.1035V76.6445Z" fill="black"/>
<path d="M135.343 204.006C159.666 204.006 179.384 184.288 179.384 159.964C179.384 135.641 159.666 115.923 135.343 115.923C111.02 115.923 91.3018 135.641 91.3018 159.964C91.3018 184.288 111.02 204.006 135.343 204.006Z" fill="#3E2C80"/>
<path d="M211.786 76.3428V86.1036C209.002 83.9569 206.151 81.9108 203.267 80.0324L211.786 76.3428Z" fill="black"/>
<path d="M158.219 165.599L136.283 207.158L114.379 165.599C113.138 163.251 112.736 160.434 113.44 157.851C118.639 139.235 153.926 139.235 159.125 157.851C159.863 160.434 159.46 163.251 158.219 165.599Z" fill="#FFD00E"/>
<path d="M136.081 126.053C136.014 160.635 107.772 188.945 73.4911 188.878C39.1436 188.777 10.666 160.333 10.666 126.053C10.666 91.2021 39.2107 62.7245 73.8266 62.9928C108.51 63.2276 136.149 91.2021 136.081 126.053Z" fill="white"/>
<path d="M73.5917 191.025C73.5581 191.025 73.5246 191.025 73.491 191.025C37.6676 190.89 8.55273 161.742 8.55273 126.053C8.55273 108.544 15.4289 92.0742 27.9068 79.697C40.2839 67.4205 56.3843 60.7455 73.86 60.8797C110.019 61.1145 138.295 89.7262 138.228 126.053C138.161 161.91 109.18 191.025 73.5917 191.025ZM73.3233 65.1396C57.3906 65.1396 42.3636 71.3785 30.892 82.7158C19.2192 94.288 12.7791 109.684 12.7791 126.053C12.7791 159.428 40.0156 186.631 73.491 186.731C73.5246 186.731 73.5581 186.731 73.5917 186.731C106.832 186.731 133.901 159.528 133.968 126.019C134.035 92.0742 107.604 65.3073 73.8264 65.106C73.6587 65.1396 73.491 65.1396 73.3233 65.1396Z" fill="black"/>
<path d="M91.0683 116.929C83.9573 122.9 82.7833 129.474 87.4792 134.774C91.7391 139.604 99.152 138.799 105.257 132.862C110.087 142.22 106.129 155.738 96.5022 162.748C85.1983 171 69.8359 169.658 60.0415 159.562C51.2869 150.539 50.616 135.78 58.1966 125.013C65.2741 115.017 80.3682 110.489 91.0683 116.929ZM84.3262 136.082C81.8776 134.204 80.4688 132.325 79.1942 132.426C77.8861 132.527 76.7121 134.506 75.4375 135.68C76.5108 136.787 77.5171 138.732 78.6911 138.833C80.0999 138.933 81.6428 137.491 84.3262 136.082Z" fill="black"/>
<path d="M261.933 126.288C261.598 160.635 233.053 188.945 198.84 188.844C164.391 188.777 135.78 159.964 136.081 125.516C136.316 90.9002 164.895 62.7916 199.645 63.0264C233.69 63.2276 262.201 92.2083 261.933 126.288Z" fill="white"/>
<path d="M199.042 190.958C198.975 190.958 198.907 190.958 198.84 190.958C181.599 190.924 165.264 184.048 152.887 171.536C140.543 159.059 133.801 142.69 133.936 125.483C134.17 89.7598 163.419 60.8796 199.209 60.8796C199.343 60.8796 199.511 60.8796 199.645 60.8796C216.685 60.9803 232.852 67.9236 245.196 80.4349C257.54 92.9463 264.248 109.248 264.114 126.288C263.712 162.01 234.563 190.958 199.042 190.958ZM199.176 65.1395C165.7 65.1395 138.397 92.1413 138.162 125.516C138.028 141.583 144.334 156.878 155.872 168.551C167.445 180.224 182.673 186.698 198.807 186.698C198.874 186.698 198.941 186.698 199.008 186.698C232.215 186.698 259.452 159.629 259.787 126.254C259.921 110.321 253.649 95.1265 242.11 83.4202C230.572 71.7139 215.477 65.2402 199.578 65.1395C199.444 65.1395 199.31 65.1395 199.176 65.1395Z" fill="black"/>
<path d="M203.235 116.929C196.124 122.9 194.95 129.474 199.646 134.774C203.906 139.604 211.319 138.799 217.424 132.862C222.254 142.22 218.296 155.738 208.669 162.748C197.365 171 182.003 169.658 172.208 159.562C163.454 150.539 162.783 135.78 170.364 125.013C177.441 114.984 192.569 110.489 203.235 116.929ZM196.493 136.082C194.045 134.204 192.636 132.325 191.361 132.426C190.053 132.527 188.879 134.506 187.604 135.68C188.678 136.786 189.684 138.732 190.858 138.833C192.3 138.9 193.843 137.457 196.493 136.082Z" fill="black"/>
<path d="M249.825 59.7727L211.787 76.3427L203.234 80.0659L135.948 109.382L69.064 80.2336L60.8126 76.6446L22.1045 59.7727H60.8126V19.1191H211.787V59.7727H249.825Z" fill="black"/>
<path d="M38.0703 164.526V225.003C38.0703 266.596 78.6232 300.809 129.608 303.694C133.264 293.631 135.344 282.998 135.344 271.963C135.344 221.75 94.5224 179.285 38.0703 164.526Z" fill="#7B63A8"/>
<path d="M135.244 288.969V323.853H128.904C72.8546 320.666 28.3438 283.132 28.3438 237.38V170.933C59.4377 179.05 86.171 194.848 105.123 215.544C124.074 236.072 135.244 261.497 135.244 288.969Z" fill="#C0B1D7"/>
<path d="M132.795 292.558V324.222H127.127C108.142 323.148 90.599 317.547 76.1086 308.759C52.4276 294.403 36.998 271.493 36.998 245.665V185.289C81.9115 197.163 116.762 227.183 128.536 264.684C131.32 273.606 132.795 282.931 132.795 292.558Z" fill="black"/>
<path d="M132.862 292.055V322.511H127.362C108.846 321.505 91.7394 316.105 77.6515 307.618C54.5407 293.799 39.5137 271.761 39.5137 246.94V188.878C83.2867 200.282 117.299 229.162 128.737 265.221C131.454 273.808 132.862 282.797 132.862 292.055Z" fill="white"/>
<path d="M234.529 164.526V225.003C234.529 266.596 193.976 300.809 142.992 303.694C139.335 293.631 137.256 282.998 137.256 271.963C137.256 221.75 178.077 179.285 234.529 164.526Z" fill="#7B63A8"/>
<path d="M137.357 288.969V323.853H143.663C199.713 320.666 244.224 283.132 244.224 237.38V170.933C213.13 179.05 186.397 194.848 167.445 215.544C148.527 236.072 137.357 261.497 137.357 288.969Z" fill="#C0B1D7"/>
<path d="M139.805 292.558V324.222H145.473C164.458 323.148 182.001 317.547 196.492 308.759C220.173 294.403 235.602 271.493 235.602 245.665V185.289C190.689 197.163 155.838 227.183 144.065 264.684C141.281 273.606 139.805 282.931 139.805 292.558Z" fill="black"/>
<path d="M139.738 292.055V322.511H145.239C163.755 321.505 180.861 316.105 194.949 307.618C218.06 293.799 233.087 271.761 233.087 246.94V188.878C189.314 200.282 155.302 229.162 143.864 265.221C141.147 273.808 139.738 282.797 139.738 292.055Z" fill="white"/>
<path d="M97.8418 332.607C97.4728 332.607 97.1709 332.305 97.1709 331.936V310.1C97.1709 309.731 97.4728 309.429 97.8418 309.429H106.764C107.133 309.429 107.435 309.731 107.435 310.1V331.936C107.435 332.305 107.133 332.607 106.764 332.607H97.8418Z" fill="#FFD00E"/>
<path d="M106.766 309.799C106.9 309.799 107.034 309.899 107.034 310.067V331.903C107.034 332.037 106.933 332.171 106.766 332.171H97.8432C97.7091 332.171 97.5749 332.071 97.5749 331.903V310.067C97.5749 309.933 97.6755 309.799 97.8432 309.799H106.766ZM106.766 308.96H97.8432C97.2395 308.96 96.7363 309.463 96.7363 310.067V331.903C96.7363 332.507 97.2395 333.01 97.8432 333.01H106.766C107.369 333.01 107.872 332.507 107.872 331.903V310.067C107.839 309.463 107.369 308.96 106.766 308.96Z" fill="black"/>
<path d="M111.427 332.607C111.058 332.607 110.756 332.305 110.756 331.936V310.1C110.756 309.731 111.058 309.429 111.427 309.429H120.349C120.718 309.429 121.02 309.731 121.02 310.1V331.936C121.02 332.305 120.718 332.607 120.349 332.607H111.427Z" fill="#FFD00E"/>
<path d="M120.35 309.799C120.484 309.799 120.618 309.899 120.618 310.067V331.903C120.618 332.037 120.517 332.171 120.35 332.171H111.427C111.293 332.171 111.159 332.071 111.159 331.903V310.067C111.159 309.933 111.259 309.799 111.427 309.799H120.35ZM120.35 308.96H111.427C110.823 308.96 110.32 309.463 110.32 310.067V331.903C110.32 332.507 110.823 333.01 111.427 333.01H120.35C120.953 333.01 121.456 332.507 121.456 331.903V310.067C121.456 309.463 120.953 308.96 120.35 308.96Z" fill="black"/>
<path d="M152.247 332.607C151.878 332.607 151.576 332.305 151.576 331.936V310.1C151.576 309.731 151.878 309.429 152.247 309.429H161.169C161.538 309.429 161.84 309.731 161.84 310.1V331.936C161.84 332.305 161.538 332.607 161.169 332.607H152.247Z" fill="#FFD00E"/>
<path d="M161.138 309.799C161.272 309.799 161.406 309.899 161.406 310.067V331.903C161.406 332.037 161.305 332.171 161.138 332.171H152.215C152.081 332.171 151.947 332.071 151.947 331.903V310.067C151.947 309.933 152.048 309.799 152.215 309.799H161.138ZM161.138 308.96H152.215C151.612 308.96 151.108 309.463 151.108 310.067V331.903C151.108 332.507 151.612 333.01 152.215 333.01H161.138C161.741 333.01 162.245 332.507 162.245 331.903V310.067C162.245 309.463 161.775 308.96 161.138 308.96Z" fill="black"/>
<path d="M165.832 332.607C165.463 332.607 165.161 332.305 165.161 331.936V310.1C165.161 309.731 165.463 309.429 165.832 309.429H174.754C175.123 309.429 175.425 309.731 175.425 310.1V331.936C175.425 332.305 175.123 332.607 174.754 332.607H165.832Z" fill="#FFD00E"/>
<path d="M174.755 309.799C174.889 309.799 175.023 309.899 175.023 310.067V331.903C175.023 332.037 174.923 332.171 174.755 332.171H165.832C165.698 332.171 165.564 332.071 165.564 331.903V310.067C165.564 309.933 165.665 309.799 165.832 309.799H174.755ZM174.755 308.96H165.832C165.229 308.96 164.726 309.463 164.726 310.067V331.903C164.726 332.507 165.229 333.01 165.832 333.01H174.755C175.359 333.01 175.862 332.507 175.862 331.903V310.067C175.862 309.463 175.359 308.96 174.755 308.96Z" fill="black"/>
<path d="M257.439 46.1545C257.995 46.1545 258.445 45.704 258.445 45.1482C258.445 44.5925 257.995 44.142 257.439 44.142C256.883 44.142 256.433 44.5925 256.433 45.1482C256.433 45.704 256.883 46.1545 257.439 46.1545Z" fill="black"/>
</svg>
