<svg width="189" height="44" viewBox="0 0 189 44" fill="none" xmlns="http://www.w3.org/2000/svg">
<path d="M0 43.729V6.65173H8.76881C11.3202 6.65173 13.2771 6.77491 14.5899 7.02127C15.878 7.26763 17.0422 7.66181 18.0083 8.25308C19.5936 9.16461 20.8569 10.495 21.7982 12.1948C22.7147 13.8947 23.2101 15.7671 23.2101 17.7626C23.2101 21.2855 21.9963 24.1187 19.6183 26.1881C17.2404 28.2822 13.9459 29.3415 9.83394 29.3415H4.90459V43.7536H0V43.729ZM4.90459 24.8578H9.41284C12.4349 24.8578 14.6642 24.3158 16.0514 23.2564C17.4633 22.1724 18.1817 20.4233 18.1817 18.0829C18.1817 15.7424 17.4633 13.9933 16.0266 12.8354C14.6147 11.7021 12.4596 11.1355 9.61101 11.1355H4.90459V24.8578Z" fill="white"/>
<path d="M26.4053 17.9844C26.4053 16.4323 26.6777 14.9788 27.1979 13.6238C27.7181 12.2688 28.5108 11.0616 29.5264 9.97764C30.6411 8.79511 31.8796 7.88357 33.2915 7.24303C34.7034 6.6025 36.1401 6.28223 37.6264 6.28223C39.2365 6.28223 40.7227 6.57786 42.0851 7.14449C43.4475 7.71112 44.7108 8.57338 45.8007 9.682C46.8906 10.7906 47.708 12.0224 48.3025 13.4267C48.897 14.8063 49.1695 16.2352 49.1695 17.7134C49.1695 19.2162 48.897 20.6943 48.3521 22.0986C47.8071 23.5275 47.0392 24.7593 46.0732 25.8433C44.9585 27.0751 43.6952 27.9866 42.2833 28.6271C40.8961 29.2677 39.3851 29.5879 37.8245 29.5879C36.2144 29.5879 34.7034 29.2923 33.3411 28.7257C31.9787 28.159 30.7401 27.2968 29.675 26.1635C28.6346 25.0795 27.842 23.8231 27.2475 22.3942C26.7025 20.9407 26.4053 19.4872 26.4053 17.9844ZM30.5172 17.9597C30.5172 20.1523 31.2108 21.9754 32.6227 23.4536C34.0099 24.9071 35.7686 25.6462 37.8493 25.6462C39.9053 25.6462 41.6144 24.9071 43.0016 23.4289C44.3888 21.9508 45.0823 20.1277 45.0823 17.9104C45.0823 15.6932 44.3888 13.8455 43.0016 12.392C41.6144 10.9384 39.8805 10.224 37.7998 10.224C35.7438 10.224 34.0099 10.9631 32.5979 12.4412C31.2108 13.8948 30.5172 15.7425 30.5172 17.9597Z" fill="white"/>
<path d="M56.6258 28.9473H52.6377V6.97196H56.3781V9.50947C57.0221 8.54867 57.79 7.80958 58.6322 7.3415C59.4744 6.87341 60.4652 6.62705 61.6047 6.60242V10.7413C59.8212 10.8891 58.5579 11.4064 57.79 12.318C57.0221 13.2295 56.6258 14.7077 56.6258 16.7278V28.9473Z" fill="white"/>
<path d="M82.3376 28.9473V26.262C81.322 27.3213 80.1825 28.1097 78.944 28.6517C77.6807 29.1937 76.3679 29.4647 74.9312 29.4647C71.6119 29.4647 68.8624 28.356 66.6578 26.1634C64.4532 23.9708 63.3633 21.2116 63.3633 17.8857C63.3633 16.3337 63.6358 14.8801 64.1807 13.5005C64.7257 12.1209 65.5183 10.8891 66.5339 9.85437C67.6486 8.69647 68.8624 7.83421 70.1752 7.29222C71.488 6.75022 72.9991 6.45459 74.6835 6.45459C76.1945 6.45459 77.5816 6.72559 78.8697 7.24294C80.133 7.78494 81.2972 8.57329 82.3376 9.65728V6.97195H86.3504V28.9473H82.3376ZM67.5 17.8364C67.5 20.0537 68.2431 21.926 69.7293 23.4288C71.2156 24.9316 73.0238 25.6954 75.1541 25.6954C77.111 25.6954 78.8202 24.9316 80.3312 23.4288C81.8174 21.926 82.5605 20.1522 82.5605 18.1321C82.5605 15.9641 81.8174 14.1164 80.3312 12.589C78.8449 11.0615 77.0862 10.2732 75.055 10.2732C72.9743 10.2732 71.1908 11.0123 69.7046 12.4658C68.2183 13.9193 67.5 15.7177 67.5 17.8364Z" fill="white"/>
<path d="M94.7968 0H93.0381V28.9474H94.7968V0Z" fill="white"/>
<path d="M110.774 29.5878C107.628 29.5878 104.928 28.4546 102.749 26.2373C100.569 23.9955 99.4541 21.2855 99.4541 18.1321C99.4541 14.8555 100.544 12.0962 102.674 9.95291C104.805 7.80957 107.579 6.72559 110.898 6.72559C114.143 6.72559 116.843 7.85884 118.874 10.0761C120.856 12.2194 121.896 15.0526 121.971 18.5016H101.262L101.312 19.1422C101.51 21.7536 102.476 23.9216 104.21 25.5229C105.944 27.1489 108.124 27.9865 110.7 27.9865C112.533 27.9865 114.193 27.5184 115.654 26.5576C117.016 25.6707 118.106 24.4635 118.874 22.9607H120.93C119.964 24.9809 118.651 26.5576 117.066 27.6909C115.258 28.9473 113.152 29.5878 110.774 29.5878ZM110.477 8.32693C108.124 8.32693 106.093 9.06601 104.433 10.5442C102.798 11.9977 101.783 13.9932 101.411 16.4815L101.312 17.1466H120.063L119.915 16.4322C119.345 13.7961 118.23 11.7513 116.67 10.3964C115.084 9.01674 112.979 8.32693 110.477 8.32693Z" fill="white"/>
<path d="M138.913 28.9474L129.55 17.5162L137.476 7.36618H139.334L131.482 17.3438L141.068 28.9474H138.913ZM126.577 28.9474V0H128.336V28.9474H126.577Z" fill="white"/>
<path d="M160.414 28.9474V17.9351C160.414 14.4614 159.894 12.0963 158.804 10.6921C157.689 9.26316 155.856 8.52408 153.33 8.52408C151.918 8.52408 150.63 8.81971 149.54 9.38634C148.45 9.9776 147.558 10.8152 146.914 11.8992C146.518 12.589 146.245 13.3527 146.072 14.215C145.923 15.0526 145.849 16.4323 145.849 18.477V28.972H144.14V0H145.849V11.1109L146.889 9.82979C147.682 8.86898 148.623 8.1299 149.713 7.66181C150.828 7.16909 152.066 6.92273 153.453 6.92273C156.475 6.92273 158.68 7.76036 160.018 9.43561C161.405 11.1601 162.098 14.0179 162.098 17.9843V28.972H160.414V28.9474Z" fill="white"/>
<path d="M177.952 29.5632C174.781 29.5632 172.106 28.4792 170.001 26.3113C167.895 24.1433 166.83 21.458 166.83 18.2553C166.83 15.028 167.92 12.2933 170.075 10.1254C172.23 7.9574 174.98 6.87341 178.225 6.87341C179.884 6.87341 181.42 7.21832 182.807 7.88349C184.17 8.54867 185.334 9.50947 186.25 10.7659L187.315 12.2441V7.36613H189V28.9473H187.315V24.0694L186.25 25.6215C185.408 26.8533 184.219 27.8141 182.758 28.5039C181.271 29.1937 179.661 29.5632 177.952 29.5632ZM178.126 8.40085C175.525 8.40085 173.27 9.36166 171.413 11.2833C169.58 13.1802 168.663 15.5699 168.663 18.3785C168.663 21.0638 169.58 23.3549 171.413 25.2273C173.246 27.075 175.475 28.0112 178.026 28.0112C180.528 28.0112 182.708 27.0257 184.541 25.0548C186.374 23.1086 187.291 20.7435 187.291 18.0089C187.291 15.4468 186.349 13.1802 184.516 11.2833C182.708 9.38629 180.528 8.40085 178.126 8.40085Z" fill="white"/>
<path d="M130.64 44C129.278 44 128.163 43.5319 127.247 42.5465C126.33 41.5857 125.859 40.4031 125.859 39.0481C125.859 37.6685 126.33 36.486 127.271 35.5252C128.213 34.5397 129.302 34.0717 130.566 34.0717C131.928 34.0717 133.043 34.5397 134.009 35.5005C134.975 36.4614 135.421 37.5946 135.421 38.925C135.421 40.3292 134.95 41.5364 134.034 42.5218C133.068 43.5319 131.953 44 130.64 44ZM130.516 34.7368C129.426 34.7368 128.51 35.1556 127.742 35.9933C126.974 36.8063 126.602 37.841 126.602 39.0481C126.602 40.2553 126.999 41.29 127.767 42.103C128.535 42.9406 129.525 43.3595 130.665 43.3595C131.804 43.3595 132.77 42.9406 133.513 42.103C134.281 41.29 134.653 40.2553 134.653 39.0235C134.653 37.7917 134.257 36.757 133.489 35.944C132.696 35.1556 131.705 34.7368 130.516 34.7368Z" fill="white"/>
<path d="M147.286 43.729V38.4568C147.286 37.2004 147.038 36.3135 146.543 35.7222C146.048 35.131 145.255 34.8353 144.19 34.8353C143.571 34.8353 143.026 34.9585 142.555 35.2049C142.084 35.4512 141.688 35.8208 141.415 36.3135C141.242 36.6091 141.118 36.954 141.044 37.3236C140.97 37.6931 140.945 38.309 140.945 39.1713V43.7043H140.301V34.3673H140.945V35.9686L141.44 35.3773C141.787 34.9585 142.208 34.6629 142.679 34.4658C143.149 34.2687 143.694 34.1702 144.314 34.1702C144.982 34.1702 145.602 34.2933 146.122 34.5397C146.642 34.7861 147.038 35.131 147.336 35.5991C147.534 35.9193 147.682 36.3135 147.782 36.757C147.881 37.225 147.93 37.9148 147.93 38.8017V43.7043H147.286V43.729Z" fill="white"/>
<path d="M154.891 31.1892H154.197V43.729H154.891V31.1892Z" fill="white"/>
<path d="M161.108 43.729V34.3919H161.802V43.729H161.108ZM161.108 32.6674V31.1892H161.802V32.6674H161.108Z" fill="white"/>
<path d="M174.262 43.729V38.4568C174.262 37.2004 174.014 36.3135 173.519 35.7222C173.023 35.131 172.23 34.8353 171.165 34.8353C170.546 34.8353 170.001 34.9585 169.531 35.2049C169.06 35.4512 168.664 35.8208 168.391 36.3135C168.218 36.6091 168.094 36.954 168.019 37.3236C167.945 37.6931 167.92 38.309 167.92 39.1713V43.7043H167.276V34.3673H167.92V35.9686L168.416 35.3773C168.763 34.9585 169.184 34.6629 169.654 34.4658C170.125 34.2687 170.67 34.1702 171.289 34.1702C171.958 34.1702 172.577 34.2933 173.097 34.5397C173.618 34.7861 174.014 35.131 174.311 35.5991C174.509 35.9193 174.658 36.3135 174.757 36.757C174.856 37.225 174.906 37.9148 174.906 38.8017V43.7043H174.262V43.729Z" fill="white"/>
<path d="M184.219 44C182.857 44 181.742 43.5319 180.801 42.5465C179.859 41.5857 179.389 40.4032 179.389 39.0482C179.389 37.6193 179.859 36.4368 180.751 35.5006C181.668 34.5891 182.832 34.121 184.244 34.121C185.656 34.121 186.77 34.5891 187.637 35.5745C188.48 36.5107 188.925 37.7178 188.95 39.196H180.057L180.082 39.4916C180.157 40.6249 180.578 41.5857 181.321 42.3001C182.064 43.0146 183.005 43.3841 184.12 43.3841C184.913 43.3841 185.631 43.1624 186.275 42.7682C186.869 42.3987 187.315 41.8567 187.662 41.2162H188.48C188.058 42.0784 187.513 42.7436 186.845 43.2363C186.126 43.729 185.235 44 184.219 44ZM184.095 34.7615C183.08 34.7615 182.188 35.0818 181.494 35.7223C180.776 36.3629 180.355 37.2251 180.181 38.3091L180.132 38.6294H188.257L188.182 38.2845C187.935 37.1266 187.464 36.2397 186.77 35.6484C186.077 35.0571 185.185 34.7615 184.095 34.7615Z" fill="white"/>
<path d="M37.6762 26.3852C42.861 26.3852 47.0642 22.2048 47.0642 17.0481C47.0642 11.8914 42.861 7.71106 37.6762 7.71106C32.4913 7.71106 28.2881 11.8914 28.2881 17.0481C28.2881 22.2048 32.4913 26.3852 37.6762 26.3852Z" fill="black"/>
<path d="M45.8506 9.3863C44.7112 8.25304 43.4479 7.39078 42.0607 6.79952C40.6736 6.20825 39.1626 5.93726 37.5029 5.93726C35.9919 5.93726 34.5057 6.25752 33.0937 6.9227C31.6818 7.56324 30.3937 8.49941 29.2791 9.70657C29.0561 9.9283 28.8827 10.15 28.6846 10.3717L32.0038 12.6383C32.1277 12.4904 32.2763 12.3426 32.4002 12.1702C33.8121 10.6674 35.5956 9.9283 37.6763 9.9283C39.7818 9.9283 41.5405 10.6674 42.9525 12.1455C43.1259 12.3426 43.2993 12.5397 43.4479 12.7368L46.7671 10.4703C46.4947 10.1007 46.1726 9.73121 45.8506 9.3863Z" fill="#3E2C80"/>
<path d="M37.3289 29.6126C35.8426 29.5633 34.4555 29.2923 33.1674 28.7504C31.7803 28.1591 30.5417 27.2968 29.427 26.1389C28.3867 25.0303 27.5692 23.7739 26.9748 22.3203C26.3803 20.8668 26.083 19.364 26.083 17.8612C26.083 17.5902 26.083 17.3192 26.1078 17.0482V12.6384C26.1078 11.4558 26.5041 10.3226 27.1977 9.3125L28.7087 10.3719L32.0032 12.6384L37.8243 16.6294L43.4968 12.7369L46.7913 10.4704L48.2775 9.43568C48.9215 10.4211 49.2683 11.5051 49.2683 12.6384V16.999C49.2683 17.1714 49.2931 17.3685 49.2931 17.5656C49.2931 19.093 49.0206 20.5958 48.4509 22.0247C47.9059 23.4782 47.138 24.7347 46.1472 25.8187C45.0078 27.0505 43.7197 28.0113 42.3078 28.6518C40.9702 29.2431 39.5582 29.5633 38.072 29.6126H37.3289V29.6126Z" fill="#3E2C80"/>
<path d="M37.3291 29.7604C35.8181 29.7111 34.4061 29.4155 33.1181 28.8735C31.7061 28.2822 30.4428 27.3953 29.3281 26.2374C28.263 25.1288 27.4208 23.8231 26.8263 22.3696C26.2318 20.8914 25.9346 19.364 25.9346 17.8612C25.9346 17.5902 25.9346 17.2945 25.9593 17.0235V12.6629C25.9593 11.4804 26.3309 10.3225 27.074 9.23854L27.1483 9.11536L28.9566 10.3472L37.8245 16.4323L46.5438 10.4457L46.6924 10.3472L48.3272 9.23854L48.4016 9.36172C49.0704 10.3964 49.4171 11.5051 49.4171 12.6383V16.9989C49.4171 17.196 49.4419 17.3684 49.4419 17.5655C49.4419 19.093 49.1694 20.6204 48.5997 22.0986C48.0548 23.5521 47.2621 24.8578 46.2465 25.9418C45.0823 27.1982 43.7694 28.159 42.3575 28.7996C40.9951 29.4155 39.5584 29.7357 38.0474 29.7604H37.3291V29.7604ZM37.3291 29.4647H38.0226C39.4841 29.4401 40.8713 29.1198 42.2089 28.5286C43.596 27.888 44.8841 26.9519 45.9988 25.7201C46.9648 24.6607 47.7327 23.3796 48.2777 21.9754C48.8226 20.5465 49.0951 19.0683 49.0951 17.5655C49.0951 17.3684 49.0951 17.196 49.0704 17.0235V12.6629C49.0704 11.6282 48.7731 10.6428 48.1786 9.68199L37.7749 16.8264L28.4364 10.4211L27.2474 9.53417C26.6034 10.5196 26.2814 11.579 26.2814 12.6629V17.0235C26.2566 17.2945 26.2566 17.5655 26.2566 17.8365C26.2566 19.3147 26.5538 20.7928 27.1236 22.2464C27.6933 23.6753 28.5107 24.9317 29.5511 26.0157C30.641 27.149 31.8795 28.0112 33.2419 28.6025C34.4804 29.1445 35.8676 29.4155 37.3291 29.4647Z" fill="white"/>
<path d="M50.1604 0H25.3154V1.2318H50.1604V0Z" fill="black"/>
<path d="M48.6987 4.33596H48.6739C48.6244 4.33596 48.5996 4.28668 48.5996 4.26205V0.763728C48.5996 0.714455 48.6491 0.689819 48.6739 0.689819H48.6987C48.7482 0.689819 48.773 0.739091 48.773 0.763728V4.26205C48.7978 4.31132 48.7482 4.33596 48.6987 4.33596Z" fill="white"/>
<path d="M48.9462 4.06496V4.08959C48.9462 4.13887 48.8967 4.1635 48.8719 4.1635H48.5499C48.5004 4.1635 48.4756 4.11423 48.4756 4.08959V4.06496C48.4756 4.01569 48.5251 3.99105 48.5499 3.99105H48.8719C48.8967 3.96641 48.9462 4.01569 48.9462 4.06496Z" fill="white"/>
<path d="M30.8389 6.92273L31.582 7.243C31.3343 7.41545 31.0866 7.5879 30.8389 7.76036V6.92273Z" fill="black"/>
<path d="M37.6014 18.4278C39.8039 18.4278 41.5894 16.652 41.5894 14.4614C41.5894 12.2708 39.8039 10.495 37.6014 10.495C35.3988 10.495 33.6133 12.2708 33.6133 14.4614C33.6133 16.652 35.3988 18.4278 37.6014 18.4278Z" fill="#3E2C80"/>
<path d="M44.5374 6.89807V7.78497C44.2897 7.58788 44.0172 7.41543 43.7695 7.24298L44.5374 6.89807Z" fill="black"/>
<path d="M39.682 14.9541L37.7003 18.6987L35.7187 14.9541C35.5948 14.7323 35.57 14.486 35.6443 14.2643C36.115 12.589 39.3104 12.589 39.781 14.2643C39.8306 14.486 39.781 14.757 39.682 14.9541Z" fill="#FFD00E"/>
<path d="M37.6757 11.3819C37.6757 14.5107 35.0996 17.0728 31.9785 17.0482C28.8574 17.0482 26.2812 14.4614 26.2812 11.3819C26.2812 8.22849 28.8822 5.66634 32.028 5.69097C35.1491 5.71561 37.6757 8.22849 37.6757 11.3819Z" fill="white"/>
<path d="M31.9788 17.2453C28.7091 17.2453 26.0586 14.6092 26.0586 11.3819C26.0586 9.80519 26.6779 8.30239 27.8173 7.19376C28.932 6.08514 30.3935 5.46924 31.9788 5.49388C35.2733 5.51851 37.8246 8.1053 37.8246 11.3819C37.8494 14.6339 35.2237 17.2453 31.9788 17.2453ZM31.954 5.88805C30.5173 5.88805 29.1302 6.45468 28.0898 7.4894C27.0246 8.52411 26.4549 9.92837 26.4549 11.4065C26.4549 14.4121 28.932 16.8757 31.9788 16.9004C35.0008 16.9004 37.4531 14.4368 37.4531 11.4065C37.4531 8.35166 35.0503 5.91269 31.9788 5.91269C32.0035 5.88805 31.9788 5.88805 31.954 5.88805Z" fill="black"/>
<path d="M32.9698 10.5689C32.3258 11.1109 32.2267 11.7022 32.6478 12.1702C33.0441 12.6137 33.7129 12.5398 34.2579 11.9978C34.7037 12.8354 34.3322 14.0672 33.4652 14.7078C32.4496 15.4468 31.0377 15.3237 30.1459 14.4121C29.3533 13.5991 29.279 12.2688 29.9726 11.2833C30.6166 10.3964 32.0037 9.97764 32.9698 10.5689ZM32.3505 12.2934C32.1276 12.121 32.0037 11.9485 31.8799 11.9732C31.756 11.9732 31.657 12.1702 31.5331 12.2688C31.6322 12.3673 31.7313 12.5398 31.8304 12.5644C31.979 12.5398 32.1028 12.4166 32.3505 12.2934Z" fill="black"/>
<path d="M49.0952 11.4065C49.0705 14.5107 46.4695 17.0728 43.3732 17.0482C40.2521 17.0482 37.6512 14.4368 37.676 11.3326C37.7007 8.20385 40.3016 5.66634 43.4475 5.69097C46.5191 5.71561 49.12 8.32703 49.0952 11.4065Z" fill="white"/>
<path d="M43.3737 17.2453C41.7883 17.2453 40.3021 16.6294 39.1874 15.4961C38.0727 14.3629 37.4535 12.8847 37.4783 11.3326C37.503 8.10532 40.1535 5.4939 43.3984 5.4939C43.4232 5.4939 43.4232 5.4939 43.448 5.4939C44.9838 5.4939 46.47 6.13443 47.5847 7.26769C48.6994 8.40095 49.3186 9.87911 49.2939 11.4065C49.2443 14.6339 46.6186 17.2453 43.3737 17.2453ZM43.3984 5.88807C40.3517 5.88807 37.8746 8.32704 37.8498 11.3326C37.8498 12.7862 38.4195 14.1658 39.4599 15.2251C40.5003 16.2845 41.8874 16.8511 43.3489 16.8758C43.3489 16.8758 43.3489 16.8758 43.3737 16.8758C46.3957 16.8758 48.8728 14.4368 48.8975 11.4065C48.8975 9.97766 48.3278 8.59804 47.2874 7.53869C46.2471 6.47934 44.8599 5.88807 43.4232 5.88807C43.4232 5.88807 43.3984 5.88807 43.3984 5.88807Z" fill="black"/>
<path d="M45.3801 11.2833C46.0737 12.2688 45.9994 13.5991 45.2067 14.4121C44.315 15.3237 42.9278 15.4468 41.8875 14.7078C41.0205 14.0672 40.6489 12.8601 41.0948 11.9978C41.6398 12.5398 42.3086 12.6137 42.7049 12.1702C43.126 11.7022 43.0269 11.0863 42.3829 10.5689C43.3489 9.97764 44.7361 10.3964 45.3801 11.2833ZM43.4976 12.5398C43.5966 12.5398 43.6957 12.3673 43.7948 12.2442C43.6709 12.1456 43.5719 11.9485 43.448 11.9485C43.3242 11.9485 43.2003 12.121 42.9774 12.2688C43.2251 12.4166 43.3737 12.5398 43.4976 12.5398Z" fill="black"/>
<path d="M48.0058 5.39526L44.5379 6.89806L43.77 7.21833L37.6516 9.87902L31.5828 7.24296L30.8397 6.92269L27.3223 5.39526H30.8397V1.72449H44.5379V5.39526H48.0058Z" fill="black"/>
<path d="M28.7588 14.8556V20.3248C28.7588 24.0695 32.4496 27.1736 37.0817 27.42C37.4037 26.5084 37.6019 25.5476 37.6019 24.5622C37.6019 20.0292 33.8863 16.1859 28.7588 14.8556Z" fill="#7B63A8"/>
<path d="M37.5773 26.1142V29.2676H37.0076C31.9296 28.972 27.8672 25.5968 27.8672 21.458V15.4468C30.691 16.1859 33.1186 17.6147 34.8525 19.4871C36.5865 21.3348 37.5773 23.6259 37.5773 26.1142Z" fill="#C0B1D7"/>
<path d="M37.3537 26.4345V29.2923H36.8335C35.0995 29.1937 33.5142 28.701 32.2014 27.888C30.0463 26.5823 28.6592 24.5129 28.6592 22.1971V16.7279C32.7463 17.8119 35.8922 20.5219 36.9821 23.897C37.2298 24.71 37.3537 25.5476 37.3537 26.4345Z" fill="black"/>
<path d="M37.3788 26.3852V29.1444H36.8834C35.199 29.0459 33.6384 28.5531 32.3751 27.7894C30.2696 26.533 28.9072 24.5621 28.9072 22.3202V17.0481C32.8953 18.0828 35.9669 20.6942 37.0072 23.9462C37.2549 24.7345 37.3788 25.5475 37.3788 26.3852Z" fill="white"/>
<path d="M46.5931 14.8556V20.3248C46.5931 24.0695 42.9023 27.1736 38.2702 27.42C37.9482 26.5084 37.75 25.5476 37.75 24.5622C37.7748 20.0292 41.4904 16.1859 46.5931 14.8556Z" fill="#7B63A8"/>
<path d="M37.7754 26.1142V29.2676H38.3451C43.4231 28.972 47.4855 25.5968 47.4855 21.458V15.4468C44.6616 16.1859 42.2341 17.6147 40.5002 19.4871C38.791 21.3348 37.7754 23.6259 37.7754 26.1142Z" fill="#C0B1D7"/>
<path d="M37.998 26.4345V29.2923H38.5182C40.2522 29.1937 41.8375 28.701 43.1503 27.888C45.3054 26.5823 46.6925 24.5129 46.6925 22.1971V16.7279C42.6054 17.8119 39.4595 20.5219 38.3696 23.897C38.1467 24.71 37.998 25.5476 37.998 26.4345Z" fill="black"/>
<path d="M37.998 26.3852V29.1444H38.4935C40.1779 29.0459 41.7384 28.5531 43.0017 27.7894C45.1072 26.533 46.4696 24.5621 46.4696 22.3202V17.0481C42.4815 18.0828 39.41 20.6942 38.3696 23.9462C38.1219 24.7345 37.998 25.5475 37.998 26.3852Z" fill="white"/>
<path d="M34.1833 30.0313C34.1586 30.0313 34.1338 30.0067 34.1338 29.9821V28.0112C34.1338 27.9865 34.1586 27.9619 34.1833 27.9619H35.0008C35.0255 27.9619 35.0503 27.9865 35.0503 28.0112V29.9821C35.0503 30.0067 35.0255 30.0313 35.0008 30.0313H34.1833Z" fill="#FFD00E"/>
<path d="M35.0005 27.9865C35.0253 27.9865 35.0253 27.9865 35.0005 27.9865L35.0253 29.982C35.0253 30.0067 35.0253 30.0067 35.0005 30.0067H34.1831C34.1583 30.0067 34.1583 30.0067 34.1583 29.982V28.0111C34.1583 27.9865 34.1583 27.9865 34.1831 27.9865H35.0005ZM35.0005 27.9126H34.1831C34.1335 27.9126 34.084 27.9619 34.084 28.0111V29.982C34.084 30.0313 34.1335 30.0806 34.1831 30.0806H35.0005C35.05 30.0806 35.0996 30.0313 35.0996 29.982V28.0111C35.0996 27.9619 35.05 27.9126 35.0005 27.9126Z" fill="black"/>
<path d="M35.4216 30.0313C35.3968 30.0313 35.3721 30.0067 35.3721 29.9821V28.0112C35.3721 27.9865 35.3968 27.9619 35.4216 27.9619H36.239C36.2638 27.9619 36.2886 27.9865 36.2886 28.0112V29.9821C36.2886 30.0067 36.2638 30.0313 36.239 30.0313H35.4216Z" fill="#FFD00E"/>
<path d="M36.2388 27.9865C36.2388 27.9865 36.2635 27.9865 36.2388 27.9865L36.2635 29.982C36.2635 30.0067 36.2635 30.0067 36.2388 30.0067H35.4213C35.3966 30.0067 35.3966 30.0067 35.3966 29.982V28.0111C35.3966 27.9865 35.3966 27.9865 35.4213 27.9865H36.2388ZM36.2388 27.9126H35.4213C35.3718 27.9126 35.3223 27.9619 35.3223 28.0111V29.982C35.3223 30.0313 35.3718 30.0806 35.4213 30.0806H36.2388C36.2883 30.0806 36.3379 30.0313 36.3379 29.982V28.0111C36.3379 27.9619 36.2883 27.9126 36.2388 27.9126Z" fill="black"/>
<path d="M39.1374 30.0313C39.1127 30.0313 39.0879 30.0067 39.0879 29.9821V28.0112C39.0879 27.9865 39.1127 27.9619 39.1374 27.9619H39.9549C39.9796 27.9619 40.0044 27.9865 40.0044 28.0112V29.9821C40.0044 30.0067 39.9796 30.0313 39.9549 30.0313H39.1374Z" fill="#FFD00E"/>
<path d="M39.9298 27.9865C39.9546 27.9865 39.9546 27.9865 39.9298 27.9865L39.9546 29.982C39.9546 30.0067 39.9546 30.0067 39.9298 30.0067H39.1372C39.1124 30.0067 39.1124 30.0067 39.1124 29.982V28.0111C39.1124 27.9865 39.1124 27.9865 39.1372 27.9865H39.9298ZM39.9298 27.9126H39.1372C39.0876 27.9126 39.0381 27.9619 39.0381 28.0111V29.982C39.0381 30.0313 39.0876 30.0806 39.1372 30.0806H39.9546C40.0041 30.0806 40.0537 30.0313 40.0537 29.982V28.0111C40.0289 27.9619 40.0041 27.9126 39.9298 27.9126Z" fill="black"/>
<path d="M40.3757 30.0313C40.3509 30.0313 40.3262 30.0067 40.3262 29.9821V28.0112C40.3262 27.9865 40.3509 27.9619 40.3757 27.9619H41.1931C41.2179 27.9619 41.2427 27.9865 41.2427 28.0112V29.9821C41.2427 30.0067 41.2179 30.0313 41.1931 30.0313H40.3757Z" fill="#FFD00E"/>
<path d="M41.1681 27.9865C41.1929 27.9865 41.1929 27.9865 41.1681 27.9865L41.1929 29.982C41.1929 30.0067 41.1929 30.0067 41.1681 30.0067H40.3754C40.3507 30.0067 40.3507 30.0067 40.3507 29.982V28.0111C40.3507 27.9865 40.3507 27.9865 40.3754 27.9865H41.1681ZM41.1681 27.9126H40.3754C40.3259 27.9126 40.2764 27.9619 40.2764 28.0111V29.982C40.2764 30.0313 40.3259 30.0806 40.3754 30.0806H41.1929C41.2424 30.0806 41.292 30.0313 41.292 29.982V28.0111C41.2672 27.9619 41.2424 27.9126 41.1681 27.9126Z" fill="black"/>
<path d="M48.6987 4.16352C48.7534 4.16352 48.7978 4.1194 48.7978 4.06497C48.7978 4.01055 48.7534 3.96643 48.6987 3.96643C48.644 3.96643 48.5996 4.01055 48.5996 4.06497C48.5996 4.1194 48.644 4.16352 48.6987 4.16352Z" fill="black"/>
</svg>
